<?xml version="1.0" standalone="no"?>
<!DOCTYPE svg PUBLIC "-//W3C//DTD SVG 20010904//EN"
 "http://www.w3.org/TR/2001/REC-SVG-20010904/DTD/svg10.dtd">
<svg version="1.0" xmlns="http://www.w3.org/2000/svg"
 width="185.000000pt" height="185.000000pt" viewBox="0 0 185.000000 185.000000"
 preserveAspectRatio="xMidYMid meet">
<metadata>
Created by potrace 1.14, written by Peter Selinger 2001-2017
</metadata>
<g transform="translate(0.000000,185.000000) scale(0.100000,-0.100000)"
fill="#000000" stroke="none">
<path d="M973 1655 c0 -8 4 -12 9 -9 5 3 6 10 3 15 -9 13 -12 11 -12 -6z"/>
<path d="M850 1630 c0 -5 5 -10 11 -10 5 0 7 5 4 10 -3 6 -8 10 -11 10 -2 0
-4 -4 -4 -10z"/>
<path d="M800 1616 c0 -2 8 -10 18 -17 15 -13 16 -12 3 4 -13 16 -21 21 -21
13z"/>
<path d="M920 1605 c-7 -8 -9 -15 -5 -15 4 0 1 -8 -6 -17 -13 -16 -12 -17 4
-4 9 8 15 16 12 19 -3 3 0 11 6 19 6 7 9 13 6 13 -2 0 -10 -7 -17 -15z"/>
<path d="M1034 1574 c0 -19 1 -32 4 -29 8 7 11 55 4 59 -4 2 -7 -11 -8 -30z"/>
<path d="M1066 1592 c-2 -4 4 -8 14 -8 10 0 16 4 14 8 -3 4 -9 8 -14 8 -5 0
-11 -4 -14 -8z"/>
<path d="M655 1571 c-3 -5 -2 -12 3 -15 5 -3 9 1 9 9 0 17 -3 19 -12 6z"/>
<path d="M933 1566 c-4 -5 -1 -6 5 -2 5 3 12 2 14 -3 1 -5 11 -4 21 4 17 12
16 13 -8 11 -15 0 -29 -5 -32 -10z"/>
<path d="M775 1561 c-3 -6 2 -14 12 -19 25 -15 -4 -38 -44 -36 -18 1 -33 -3
-33 -8 0 -5 5 -6 10 -3 6 3 10 2 10 -2 0 -5 -9 -14 -21 -21 -19 -12 -20 -11
-15 6 4 12 0 24 -11 33 -16 13 -17 12 -4 -4 8 -9 10 -21 6 -25 -4 -4 -10 -1
-12 6 -3 6 -10 12 -16 12 -8 0 -7 -4 1 -12 19 -19 14 -32 -5 -17 -17 13 -17
13 0 -7 23 -28 22 -41 -2 -20 -12 11 -21 14 -26 7 -3 -6 -15 -11 -26 -11 -10
0 -19 -4 -19 -10 0 -5 6 -7 13 -4 8 3 14 -2 14 -11 0 -9 -6 -14 -14 -11 -8 3
-11 2 -8 -3 3 -5 1 -12 -5 -16 -5 -3 -10 -3 -11 2 0 4 -2 18 -3 31 -3 21 24
48 36 36 3 -2 11 2 18 11 8 10 9 15 1 15 -6 0 -11 -5 -11 -10 0 -5 -3 -9 -7
-8 -5 1 -18 -2 -31 -6 -17 -6 -21 -13 -17 -27 5 -15 2 -18 -12 -13 -16 5 -16
4 -1 -5 9 -6 14 -19 11 -29 -5 -22 -40 -27 -40 -6 0 8 6 13 14 10 7 -3 13 -2
13 3 0 12 -39 21 -45 11 -3 -5 -1 -11 5 -15 6 -4 7 -11 4 -17 -4 -6 -10 -5
-16 3 -7 10 -8 9 -4 -5 4 -11 1 -23 -6 -28 -21 -13 -31 -9 -18 7 9 10 9 15 1
15 -6 0 -11 -5 -11 -11 0 -6 -9 -9 -20 -6 -11 3 -18 1 -14 -4 3 -5 11 -9 18
-9 15 0 66 -39 53 -40 -4 0 -21 7 -38 15 -26 14 -30 14 -35 0 -3 -8 -11 -12
-17 -8 -6 3 -7 1 -3 -5 10 -17 26 -15 26 3 0 9 6 12 15 9 15 -6 22 -35 8 -33
-29 5 -33 -3 -12 -21 30 -24 13 -26 -24 -2 -15 10 -24 22 -20 27 5 4 2 4 -6 0
-12 -7 -11 -11 7 -23 12 -8 22 -19 22 -24 0 -6 -7 -5 -15 2 -9 7 -15 8 -15 2
0 -5 7 -13 16 -16 9 -4 14 -9 11 -12 -3 -3 -16 -1 -29 6 -22 11 -22 10 -4 -4
11 -9 24 -16 29 -16 4 0 5 -5 2 -11 -5 -7 -15 -5 -31 5 -13 9 -27 16 -31 16
-4 0 0 -5 10 -11 9 -5 17 -18 17 -27 -1 -16 -2 -16 -14 1 -18 24 -29 22 -14
-3 9 -14 19 -18 33 -13 17 5 18 4 6 -10 -7 -9 -18 -14 -24 -10 -6 4 -8 0 -4
-9 7 -19 -20 -61 -34 -53 -5 4 -9 1 -9 -4 0 -14 13 -14 28 1 9 9 12 9 12 1 0
-7 -5 -15 -10 -18 -6 -4 -8 -15 -5 -26 5 -14 3 -17 -9 -13 -9 3 -16 1 -16 -6
0 -6 5 -8 10 -5 14 9 7 -30 -10 -49 -9 -12 -15 -14 -20 -6 -5 8 -9 6 -13 -5
-4 -9 -3 -13 3 -10 6 3 10 2 10 -4 0 -5 -6 -12 -12 -14 -7 -3 -8 -6 -2 -6 5
-1 20 13 32 29 13 17 28 30 34 30 6 0 1 -12 -13 -27 -13 -14 -19 -23 -13 -20
7 4 15 0 18 -9 9 -24 7 -28 -8 -14 -11 9 -19 9 -33 0 -16 -10 -15 -10 5 -5 23
7 23 7 7 -25 -9 -18 -14 -35 -10 -38 3 -3 8 4 12 17 4 17 8 20 15 9 7 -9 8 -7
4 8 -4 14 -2 21 8 21 22 0 15 -39 -9 -55 -19 -12 -19 -13 4 -6 15 4 21 2 17
-4 -3 -6 1 -17 9 -25 19 -20 19 -22 -4 -24 -11 -1 -18 5 -17 14 0 9 -5 18 -11
20 -7 3 -13 0 -13 -7 0 -6 4 -8 10 -5 12 7 14 -8 3 -19 -11 -10 -11 -66 -1
-66 5 0 6 15 3 33 -5 26 -4 30 7 19 7 -7 13 -18 13 -25 0 -7 11 -11 24 -9 21
2 22 0 10 -15 -11 -13 -11 -17 -1 -20 6 -3 9 -9 6 -14 -3 -6 -11 -5 -20 2 -8
7 -14 7 -14 1 0 -14 26 -22 37 -11 6 6 15 4 23 -6 12 -14 12 -16 -1 -15 -33 5
-42 1 -30 -14 9 -10 9 -20 2 -33 -6 -13 -6 -24 1 -34 8 -11 9 -10 4 4 -4 12 3
27 19 43 28 28 43 31 41 7 0 -11 5 -17 13 -15 9 2 11 -3 7 -13 -3 -9 -6 -20
-6 -23 0 -4 -9 6 -19 21 -11 18 -21 25 -25 18 -4 -6 -3 -11 3 -11 6 0 15 -10
22 -22 10 -18 8 -24 -12 -40 -19 -14 -20 -17 -5 -11 13 4 17 3 12 -5 -5 -8 -2
-10 9 -5 10 3 12 8 7 12 -7 4 -6 12 1 22 12 16 18 19 38 19 5 0 7 5 3 11 -4 8
-9 7 -15 -2 -5 -8 -9 -9 -9 -4 0 6 5 16 12 23 9 9 9 12 -3 13 -7 1 -17 1 -21
0 -5 0 -8 4 -8 10 0 6 7 8 16 5 8 -3 12 -2 9 3 -3 5 -1 12 5 16 5 3 10 11 10
17 0 6 -8 4 -18 -5 -12 -11 -22 -13 -32 -7 -8 5 -11 10 -6 10 5 0 3 6 -3 13
-6 8 -7 18 -3 22 4 5 2 5 -5 1 -8 -4 -11 0 -8 15 4 18 2 19 -12 7 -14 -11 -16
-11 -8 2 15 24 14 38 -2 44 -9 4 -13 13 -9 22 4 10 2 13 -6 8 -7 -5 -8 -3 -3
6 6 9 4 11 -5 5 -10 -6 -11 -4 -4 6 9 15 14 80 5 74 -3 -2 -6 16 -7 40 0 26 4
41 9 38 6 -3 7 -1 3 6 -4 6 -12 9 -17 6 -5 -4 -9 -1 -9 5 0 7 7 9 16 6 10 -4
13 -2 8 7 -6 9 -4 9 8 -1 8 -7 24 -10 34 -6 16 5 16 4 4 -5 -12 -8 -12 -11 -1
-11 11 0 11 -3 1 -15 -7 -8 -16 -12 -21 -9 -5 3 -9 0 -9 -5 0 -14 23 -14 36
-1 7 7 17 5 30 -6 18 -14 18 -15 -4 -4 -18 9 -23 8 -28 -4 -3 -8 -11 -13 -18
-10 -21 8 -12 -31 13 -57 15 -14 22 -18 18 -8 -3 9 -1 22 4 30 5 10 8 5 6 -14
-1 -15 -8 -31 -15 -36 -10 -6 -10 -10 3 -21 8 -7 15 -18 15 -25 0 -8 3 -15 8
-18 4 -2 2 -2 -5 -1 -17 4 -26 -13 -11 -19 8 -2 9 -8 4 -13 -5 -5 -11 -4 -13
4 -3 6 -9 12 -15 12 -7 0 -6 -5 2 -14 7 -9 24 -13 43 -11 39 5 50 -2 37 -25
-11 -20 -3 -53 11 -45 4 3 6 13 3 23 -5 14 -4 15 5 2 6 -9 7 -18 1 -24 -16
-16 -12 -30 4 -17 11 9 16 9 21 1 9 -14 -6 -30 -31 -35 -11 -2 -21 -4 -23 -4
-2 -1 9 -13 25 -27 18 -16 21 -22 9 -16 -20 10 -55 -5 -55 -23 0 -4 7 -2 15 5
11 9 15 9 15 1 0 -6 -7 -14 -15 -17 -8 -4 -15 -10 -15 -16 0 -5 5 -6 10 -3 15
9 40 -14 33 -31 -3 -7 -9 -11 -14 -8 -5 3 -6 -3 -2 -12 4 -11 8 -13 11 -6 2 7
8 10 13 7 5 -4 6 2 2 12 -5 16 -4 16 14 -2 11 -11 18 -24 15 -30 -3 -5 1 -4 9
2 18 18 34 16 19 -2 -6 -8 -8 -20 -4 -26 5 -9 2 -10 -10 -6 -11 5 -15 3 -10
-5 5 -8 1 -9 -12 -4 -14 5 -16 4 -8 -4 9 -9 17 -9 32 -1 10 6 23 7 28 3 5 -4
2 1 -5 10 -13 17 -8 38 9 38 5 0 7 -7 4 -15 -4 -8 -1 -15 6 -15 6 0 8 5 5 10
-3 6 -2 10 3 10 6 0 13 -7 16 -16 8 -22 8 -24 -6 -20 -7 1 -10 1 -6 -1 4 -2 5
-12 2 -21 -5 -15 -4 -15 6 0 9 15 14 16 33 5 12 -6 26 -16 30 -22 5 -6 7 -3 3
7 -3 10 -2 18 3 18 13 0 58 -39 45 -40 -5 0 -15 5 -22 12 -8 8 -12 8 -12 1 0
-16 31 -25 45 -13 9 8 14 8 17 0 3 -9 11 -13 47 -19 3 -1 -6 -13 -20 -28 l-24
-28 25 21 c14 12 32 24 40 27 12 4 12 6 -2 6 -12 1 -15 6 -11 17 4 12 7 13 14
3 4 -8 11 -10 15 -6 4 4 18 0 30 -8 21 -13 23 -13 29 5 4 11 11 17 17 14 6 -4
8 -2 4 4 -3 6 -2 13 3 16 5 3 11 -1 15 -9 3 -9 -3 -19 -15 -26 -11 -6 -18 -13
-15 -17 3 -3 17 5 31 18 31 29 43 22 15 -8 -12 -12 -17 -22 -12 -22 5 0 23 18
40 39 31 39 27 46 -15 23 -15 -8 -23 -9 -23 -2 0 5 6 10 14 10 9 0 14 9 13 20
-2 26 -25 34 -23 8 1 -13 -6 -22 -16 -24 -10 -1 -18 2 -18 8 0 7 -5 7 -13 -1
-8 -6 -18 -7 -22 -3 -5 4 -5 2 -1 -5 4 -7 14 -9 22 -6 14 5 14 3 3 -16 -8 -11
-17 -21 -22 -21 -4 0 -6 4 -2 9 7 12 -24 43 -36 36 -5 -4 -9 -1 -9 4 0 18 -3
26 -17 39 -7 7 -13 18 -13 24 0 6 8 1 19 -10 20 -23 33 -20 24 6 -4 15 -3 15
7 2 9 -11 13 -12 17 -2 2 6 9 12 15 12 7 0 6 -5 -1 -14 -7 -9 -8 -17 -2 -20 5
-3 12 0 14 6 4 10 8 10 16 -2 5 -8 7 -18 5 -22 -3 -4 -1 -8 5 -8 20 0 20 18 0
44 -23 29 -19 35 5 10 22 -21 103 -24 90 -2 -4 7 -3 8 5 4 6 -4 8 -13 5 -19
-5 -8 -3 -8 6 0 12 11 10 16 -8 33 -29 27 -28 39 1 14 33 -28 67 -46 67 -34 0
5 -14 17 -30 25 -17 9 -28 20 -25 25 4 6 8 10 11 10 3 0 2 -5 -2 -12 -5 -8 -2
-9 10 -5 10 4 15 3 11 -3 -6 -9 8 -14 28 -11 5 1 6 -3 3 -8 -4 -5 -1 -13 5
-17 8 -5 10 1 7 19 -3 18 -1 24 8 20 7 -2 10 -11 7 -19 -4 -10 0 -12 11 -8 9
3 13 11 9 17 -3 6 -1 7 5 3 8 -5 11 1 9 16 -1 13 -9 26 -17 30 -11 6 -10 7 5
5 13 -2 19 -9 17 -21 -4 -22 14 -13 29 16 9 17 9 20 -3 15 -8 -3 -21 -2 -27 3
-9 5 -4 8 13 8 15 -1 29 -4 32 -9 3 -5 10 -9 16 -9 7 0 5 7 -4 18 -8 9 -18 26
-22 37 -9 24 3 14 19 -17 6 -13 17 -22 24 -20 16 3 71 -36 71 -50 0 -7 -12 -1
-27 13 -14 13 -23 18 -18 10 6 -10 4 -12 -5 -6 -9 6 -11 4 -5 -5 5 -9 4 -11
-4 -6 -6 4 -9 11 -6 16 3 4 -6 7 -19 6 -18 -1 -23 -6 -22 -24 1 -20 2 -21 14
-5 6 9 12 12 12 5 0 -6 9 -9 20 -7 23 5 51 -30 43 -53 -4 -10 1 -8 15 6 12 12
27 22 34 22 6 0 9 3 6 6 -4 3 -16 1 -27 -6 -27 -14 -27 0 0 24 17 14 23 15 30
5 4 -7 11 -10 16 -6 12 12 -20 27 -42 20 -20 -6 -20 -5 -1 16 19 21 43 30 31
12 -3 -6 4 -15 15 -21 13 -7 20 -7 20 0 0 5 -6 10 -13 10 -7 0 -13 10 -14 21
-2 21 -2 21 25 -2 15 -13 20 -15 11 -5 -16 17 -16 20 -1 37 16 18 17 18 28 -2
10 -19 12 -19 17 -5 4 10 3 15 -2 12 -5 -3 -11 1 -15 9 -3 8 3 19 12 24 15 9
9 13 -14 10 -8 -1 -24 23 -24 36 0 6 5 3 10 -5 5 -8 10 -11 10 -6 0 4 11 1 25
-8 14 -9 25 -12 25 -6 0 5 -4 10 -10 10 -5 0 -9 6 -7 13 1 7 -7 11 -23 10 -23
-3 -24 -2 -7 11 11 8 25 12 33 9 9 -3 14 1 14 12 0 9 5 13 11 10 6 -4 5 2 -3
14 -7 12 -19 19 -28 16 -8 -3 -6 2 5 10 18 15 21 14 29 -4 9 -21 9 -21 27 0
19 23 17 39 -6 39 -16 0 -28 27 -15 35 6 4 10 1 10 -5 0 -7 8 -9 20 -5 15 5
18 3 14 -9 -3 -9 -2 -16 4 -16 6 0 9 8 8 18 -2 9 -11 17 -20 17 -10 0 -22 8
-28 18 -8 14 -4 23 17 43 14 13 23 24 19 24 -4 0 -16 -7 -26 -17 -10 -9 -18
-11 -18 -5 0 6 9 17 20 25 11 8 17 17 12 22 -4 4 1 5 11 2 10 -4 16 -3 12 2
-3 5 1 12 7 14 10 4 10 6 0 6 -7 1 -26 -13 -41 -29 -15 -17 -30 -27 -34 -24
-9 10 -9 25 1 21 11 -3 47 36 50 55 1 10 -9 25 -23 34 -28 18 -32 31 -10 31 8
0 15 -4 15 -9 0 -4 5 -8 10 -8 6 0 5 8 -2 20 -7 11 -15 15 -19 9 -4 -7 -9 -4
-13 6 -8 22 -8 24 7 21 29 -6 46 -19 40 -29 -4 -6 -1 -7 7 -2 10 6 10 10 -3
20 -15 11 -15 13 1 30 16 18 16 18 -2 5 -25 -19 -49 -22 -42 -4 3 7 -4 18 -15
24 -11 6 -16 16 -13 22 4 7 3 8 -4 4 -7 -4 -12 -3 -12 2 0 5 9 12 20 15 11 3
20 11 19 19 0 10 -2 10 -6 1 -8 -22 -31 -14 -52 16 -26 36 -27 45 -2 29 11 -7
22 -21 25 -32 3 -11 8 -17 11 -14 9 9 -12 46 -33 57 -12 6 -25 5 -42 -6 -14
-8 -17 -12 -8 -9 12 4 16 0 13 -14 -2 -11 0 -22 5 -25 5 -3 7 -14 5 -25 -2
-12 0 -18 5 -15 13 8 38 -5 36 -18 -1 -7 -6 -18 -10 -26 -6 -9 -5 -12 1 -8 5
3 9 -10 9 -31 0 -23 4 -36 12 -35 7 2 9 -4 6 -15 -5 -13 -4 -14 4 -3 6 8 12 9
16 3 3 -5 0 -12 -7 -14 -17 -7 -38 2 -32 12 3 5 -4 8 -15 7 -23 -2 -24 -4 -7
-21 7 -7 22 -12 35 -11 12 1 20 -1 17 -3 -3 -3 1 -12 8 -20 10 -13 9 -15 -4
-10 -9 4 -16 1 -16 -7 0 -7 6 -11 14 -8 7 3 13 1 13 -4 0 -5 -9 -9 -21 -10
-14 -1 -19 3 -15 12 2 7 -1 18 -8 24 -10 8 -13 1 -13 -34 -1 -25 2 -45 6 -45
4 0 7 -10 8 -22 2 -23 2 -23 -11 1 -9 15 -16 20 -20 12 -4 -6 -2 -11 3 -11 6
0 11 -5 11 -12 0 -6 -9 -3 -20 7 -11 10 -20 28 -19 39 1 18 2 18 8 -4 5 -17 9
-21 15 -12 4 6 5 16 2 21 -4 5 0 12 6 14 8 3 6 6 -4 6 -10 1 -18 6 -18 12 0 5
4 8 9 4 5 -3 12 -1 15 4 3 5 -4 11 -15 14 -12 3 -18 10 -15 16 4 5 -4 12 -16
14 -20 5 -20 5 2 3 14 -1 24 -7 23 -14 -3 -14 13 -16 22 -2 3 5 -3 15 -14 21
-15 10 -17 16 -8 31 7 10 17 18 24 18 7 0 13 5 13 11 0 5 -5 7 -10 4 -14 -9
-58 27 -52 43 2 8 -3 10 -15 6 -17 -5 -17 -5 -1 9 10 8 15 17 11 20 -3 4 0 7
8 7 12 0 12 2 0 9 -16 10 -42 -8 -33 -24 2 -5 -1 -5 -8 2 -11 10 -9 16 11 33
13 12 17 19 9 17 -8 -3 -24 -8 -35 -12 -18 -6 -18 -5 1 7 18 10 19 15 9 25 -7
6 -16 9 -21 5 -4 -4 -4 -2 0 5 4 7 -4 19 -18 28 -13 9 -27 24 -30 33 -5 15 -5
15 8 0 18 -24 29 -23 16 1 -5 11 -7 27 -4 36 4 9 3 15 -2 13 -5 -2 -11 1 -14
6 -3 5 6 10 20 12 14 1 19 0 12 -3 -10 -4 -9 -9 5 -20 10 -8 12 -12 6 -8 -8 4
-11 1 -7 -9 3 -8 14 -18 25 -21 10 -4 26 -13 34 -22 14 -14 18 -14 34 1 11 10
21 12 27 6 17 -17 52 -20 58 -4 4 11 2 12 -12 5 -26 -14 -87 25 -71 45 8 10 8
14 0 14 -6 0 -11 -4 -11 -10 0 -5 -5 -10 -11 -10 -6 0 -8 7 -5 16 3 8 2 13 -3
10 -5 -3 -12 1 -15 10 -10 25 -7 27 12 13 15 -13 16 -12 3 4 -12 16 -16 16
-31 2 -23 -21 -37 -19 -17 3 13 14 14 21 5 30 -7 7 -18 12 -25 12 -7 0 -17 9
-23 21 -7 11 -14 18 -17 15 -3 -3 -11 2 -18 10 -11 15 -14 15 -39 -1 -14 -10
-29 -15 -32 -12 -3 3 10 16 30 29 20 13 36 27 36 31 0 5 -14 -1 -31 -13 -16
-12 -33 -19 -37 -15 -4 4 -1 10 6 12 20 7 14 22 -8 18 -11 -2 -24 3 -30 13 -5
9 -10 12 -10 7 0 -6 5 -16 12 -23 8 -8 8 -12 1 -12 -6 0 -16 7 -23 15 -15 19
-39 19 -46 2 -5 -15 -34 -19 -34 -5 0 5 11 14 25 20 25 11 34 28 14 28 -5 0
-8 4 -5 8 3 5 -1 9 -9 9 -18 0 -20 -14 -2 -20 6 -2 8 -8 4 -13 -5 -5 -15 -1
-23 10 -8 11 -14 15 -14 9 0 -7 5 -15 10 -18 6 -4 7 -11 4 -17 -4 -7 -10 -5
-16 5 -5 10 -15 14 -25 10 -11 -4 -14 -3 -9 5 4 7 2 12 -4 12 -7 0 -9 -7 -6
-16 5 -13 2 -15 -11 -9 -10 4 -26 7 -35 7 -10 0 -17 4 -15 11 3 17 -29 20 -45
4 -12 -12 -17 -12 -33 -1 -10 7 -22 11 -26 8 -5 -3 -9 0 -9 5 0 6 -5 11 -10
11 -6 0 -5 -8 2 -20 7 -11 20 -18 28 -15 11 3 16 -2 17 -16 2 -17 -1 -19 -10
-10 -16 16 -27 14 -27 -5 0 -8 -4 -13 -10 -9 -5 3 -7 12 -4 20 3 7 -3 22 -14
33 -11 11 -18 23 -14 26 3 3 3 6 -1 6 -3 0 -8 -4 -12 -9z m160 -31 c-3 -5 -13
-10 -21 -10 -8 0 -14 -5 -14 -10 0 -7 6 -8 17 -1 12 7 21 5 30 -7 7 -10 13
-12 12 -7 -3 22 2 25 21 15 14 -8 26 -7 43 1 12 6 19 8 15 4 -9 -9 19 -38 39
-41 8 -1 17 4 20 12 6 16 33 19 33 4 0 -5 -6 -10 -14 -10 -8 0 -18 -5 -22 -12
-5 -8 -2 -9 12 -3 10 4 28 8 39 9 11 1 25 4 30 8 7 4 11 -5 10 -25 0 -25 4
-32 20 -32 11 0 26 6 33 15 11 13 13 13 23 -3 5 -9 14 -15 19 -12 4 3 11 -2
14 -10 3 -9 18 -20 32 -26 24 -9 26 -12 13 -25 -8 -8 -26 -16 -38 -19 -33 -6
-37 -13 -23 -36 11 -18 11 -18 -7 -7 -10 6 -17 18 -14 25 3 8 0 12 -8 10 -8
-2 -11 -2 -6 0 12 7 8 23 -5 20 -17 -3 -37 -21 -32 -29 2 -4 0 -10 -6 -13 -6
-4 -9 -3 -8 2 2 4 -5 19 -15 33 -9 13 -17 21 -17 17 0 -5 -7 -2 -15 7 -9 8
-22 13 -29 10 -8 -3 -17 0 -21 6 -4 7 -1 10 10 8 10 -2 20 2 22 9 3 8 -3 11
-16 8 -12 -2 -21 -1 -21 3 0 4 -9 8 -19 9 -13 1 -18 -3 -14 -13 3 -7 10 -11
17 -8 6 4 4 -1 -6 -11 -16 -18 -39 -13 -37 8 0 9 2 9 6 0 2 -7 9 -13 14 -13 6
0 5 10 -2 22 l-12 22 -17 -22 c-15 -18 -19 -19 -24 -6 -3 8 -2 12 4 9 6 -3 10
-2 10 3 0 17 -13 22 -28 9 -13 -10 -14 -9 -8 2 6 9 5 12 -5 9 -8 -3 -21 -2
-30 3 -8 4 -22 3 -30 -2 -13 -8 -11 -10 20 -13 17 -1 28 -26 11 -26 -6 0 -8 5
-4 11 4 7 1 10 -7 7 -8 -3 -22 2 -33 11 -18 15 -18 15 -12 -9 l7 -25 -14 24
c-9 14 -17 19 -21 13 -3 -6 -2 -13 4 -17 5 -3 10 -12 10 -18 0 -7 -5 -4 -11 6
-5 9 -17 17 -25 17 -11 0 -14 6 -9 23 6 21 5 21 -9 3 -8 -10 -19 -15 -25 -11
-13 7 -14 3 -5 -20 4 -10 9 -13 13 -6 4 6 12 2 19 -9 7 -12 8 -20 2 -20 -5 0
-10 5 -10 10 0 6 -3 9 -7 9 -20 -3 -34 2 -28 11 3 6 -1 10 -10 10 -9 0 -13 -4
-10 -10 3 -5 1 -10 -5 -10 -7 0 -9 8 -5 19 4 14 1 19 -10 17 -17 -3 -52 -46
-36 -46 5 0 15 8 20 18 6 9 10 13 10 7 0 -5 -6 -19 -14 -29 -22 -29 -18 -45 4
-18 22 26 28 27 28 8 0 -8 -3 -15 -6 -14 -19 2 -24 -4 -11 -12 12 -8 9 -9 -10
-7 -16 3 -25 10 -25 22 0 10 -6 20 -13 23 -7 2 -12 0 -11 -5 3 -19 -2 -33 -12
-33 -8 0 -8 5 1 15 14 16 10 18 -14 9 -9 -3 -13 -11 -9 -17 3 -6 1 -7 -5 -3
-15 9 -15 1 -2 -24 8 -16 7 -18 -4 -14 -8 3 -17 1 -20 -5 -4 -6 -13 -8 -22 -4
-20 7 -15 -14 12 -52 20 -28 20 -31 4 -31 -11 0 -16 5 -12 15 3 9 1 12 -6 7
-8 -5 -10 -1 -5 10 4 12 3 15 -6 10 -6 -4 -18 -2 -27 4 -12 11 -14 9 -12 -11
2 -17 -2 -24 -14 -23 -10 1 -16 -5 -15 -17 1 -11 9 -19 19 -19 25 0 30 -16 10
-31 -15 -13 -16 -12 -3 4 12 15 11 17 -10 18 -13 1 -28 0 -34 -1 -5 -1 -16 -3
-22 -3 -7 0 -13 -7 -13 -15 0 -8 6 -12 14 -9 7 3 19 0 26 -6 10 -9 12 -8 7 6
-4 9 -2 17 4 17 6 0 9 -8 7 -17 -2 -13 -12 -17 -32 -16 -23 2 -26 0 -16 -12 7
-8 16 -12 21 -9 5 3 9 0 9 -6 0 -7 -8 -9 -19 -5 -11 3 -27 -3 -42 -16 -13 -11
-17 -18 -9 -16 8 3 24 8 35 12 14 5 13 2 -4 -8 -17 -10 -20 -16 -10 -19 11 -4
8 -11 -10 -32 -14 -14 -20 -26 -14 -26 6 0 16 7 23 15 14 17 23 13 26 -11 2
-11 -1 -12 -11 -4 -9 8 -15 8 -20 0 -3 -5 -1 -10 4 -10 6 0 11 -5 11 -11 0 -8
-4 -8 -12 -1 -18 13 -73 8 -94 -9 -16 -13 -16 -12 -5 9 6 12 9 27 6 33 -4 5
-1 17 6 25 10 12 14 12 20 2 6 -9 9 -10 9 -1 0 7 -8 17 -18 22 -10 6 -12 11
-4 11 7 0 11 4 8 9 -3 5 3 20 14 33 15 20 16 28 7 38 -9 10 -9 11 0 6 6 -3 14
-2 18 4 10 16 28 12 21 -6 -3 -9 -2 -12 5 -9 6 4 8 13 5 20 -2 7 2 16 10 19 8
3 14 11 14 18 0 9 -3 9 -11 -2 -8 -11 -12 -12 -16 -2 -2 6 -10 9 -15 6 -7 -4
-8 -2 -4 5 4 6 12 9 17 6 20 -13 30 7 13 26 -16 17 -15 18 6 14 15 -3 20 0 17
9 -4 9 2 12 19 10 22 -2 26 2 23 22 0 4 5 10 11 14 9 5 9 9 1 14 -6 4 -11 2
-11 -4 0 -6 -5 -8 -12 -4 -9 5 -9 2 1 -9 7 -9 9 -17 3 -17 -5 0 -14 6 -19 13
-13 16 15 42 45 41 12 -1 27 6 32 15 6 10 10 11 10 4 0 -13 39 20 41 35 1 4 5
15 11 25 9 18 10 18 30 0 26 -23 27 -23 43 7 7 14 16 24 20 22 3 -2 14 7 25
20 10 13 22 20 26 15 4 -4 2 -13 -6 -20 -10 -10 -11 -9 -5 3 5 9 4 12 -1 7 -5
-5 -9 -12 -9 -15 0 -4 -4 -14 -9 -22 -5 -8 -6 -12 -1 -8 4 4 14 3 21 -3 8 -7
14 -7 19 1 3 6 11 7 17 4 7 -5 8 -2 2 7 -15 25 -14 47 3 60 14 12 16 12 11 -2
-4 -9 -2 -21 4 -27 13 -13 40 -4 31 12 -4 6 0 6 9 -2 18 -15 34 0 22 20 -4 6
-3 8 3 5 6 -4 16 0 23 8 14 17 45 21 35 5z m-160 -67 c-2 -10 -4 -19 -4 -21
-1 -2 -6 0 -11 3 -8 5 -7 11 1 21 15 18 18 18 14 -3z m-85 -13 c0 -5 -2 -10
-4 -10 -3 0 -8 5 -11 10 -3 6 -1 10 4 10 6 0 11 -4 11 -10z m158 -65 c-3 -3
-9 2 -12 12 -6 14 -5 15 5 6 7 -7 10 -15 7 -18z m113 2 c-10 -9 -11 -8 -5 6 3
10 9 15 12 12 3 -3 0 -11 -7 -18z m-57 1 c-5 -7 -2 -9 9 -5 11 4 14 2 10 -9
-4 -11 -9 -12 -19 -3 -12 10 -11 29 2 29 3 0 2 -5 -2 -12z m126 -18 c0 -4 -7
-7 -15 -6 -23 3 -26 12 -5 13 11 1 20 -2 20 -7z m70 0 c12 -7 10 -9 -8 -7 -12
0 -22 5 -22 9 0 11 12 10 30 -2z m-256 -8 c2 -4 -4 -8 -14 -8 -10 0 -16 4 -14
8 3 4 9 8 14 8 5 0 11 -4 14 -8z m-54 -17 c0 -2 -9 -3 -19 -2 -11 0 -18 5 -15
9 4 6 34 0 34 -7z m211 -2 c13 -16 12 -17 -3 -4 -10 7 -18 15 -18 17 0 8 8 3
21 -13z m54 7 c-3 -5 -12 -10 -18 -10 -7 0 -6 4 3 10 19 12 23 12 15 0z m81
-15 c-10 -8 -12 -16 -6 -23 7 -9 7 -9 -2 -2 -19 16 -17 36 4 36 17 0 17 -2 4
-11z m-449 -2 c-4 -3 -2 -12 5 -20 8 -11 7 -12 -6 -7 -18 7 -22 34 -4 34 6 0
8 -3 5 -7z m128 -3 c-3 -5 -12 -10 -18 -10 -7 0 -6 4 3 10 19 12 23 12 15 0z
m565 -20 c7 -16 16 -27 20 -25 12 8 23 -13 14 -27 -5 -7 -11 -5 -21 7 -7 11
-13 16 -13 12 0 -4 -9 -3 -21 3 -11 7 -18 14 -15 17 3 4 0 13 -7 21 -9 13 -9
14 1 8 6 -4 12 -2 12 3 0 22 18 10 30 -19z m-337 5 c-3 -9 -8 -14 -10 -11 -3
3 -2 9 2 15 9 16 15 13 8 -4z m192 -5 c-3 -5 -11 -10 -16 -10 -6 0 -7 5 -4 10
3 6 11 10 16 10 6 0 7 -4 4 -10z m-615 -20 c-8 -5 -19 -10 -25 -10 -5 0 -3 5
5 10 8 5 20 10 25 10 6 0 3 -5 -5 -10z m646 -1 c3 -6 1 -16 -6 -22 -10 -9 -12
-8 -6 7 5 14 2 17 -9 12 -9 -3 -13 -2 -10 4 8 13 22 13 31 -1z m-643 -24 c-3
-9 -8 -14 -10 -11 -3 3 -2 9 2 15 9 16 15 13 8 -4z m56 1 c9 -11 9 -16 -1 -22
-7 -4 -10 -4 -6 1 4 4 3 14 -3 22 -6 7 -9 13 -6 13 2 0 10 -6 16 -14z m526 -4
c-3 -3 -11 0 -18 7 -9 10 -8 11 6 5 10 -3 15 -9 12 -12z m-641 -28 c3 -8 2
-12 -4 -9 -6 3 -10 10 -10 16 0 14 7 11 14 -7z m703 -26 c-3 -8 -6 -5 -6 6 -1
11 2 17 5 13 3 -3 4 -12 1 -19z m-706 -5 c13 -17 13 -17 -6 -3 -11 8 -22 16
-24 17 -2 2 0 3 6 3 6 0 17 -8 24 -17z m747 3 c-7 -8 -15 -12 -17 -11 -5 6 10
25 20 25 5 0 4 -6 -3 -14z m122 -1 c0 -3 9 -14 21 -24 23 -19 13 -36 -11 -20
-13 7 -13 9 0 9 13 0 13 2 1 9 -8 5 -16 17 -17 26 -1 9 0 15 3 12 2 -3 4 -8 3
-12z m-90 -20 c0 -2 -6 -5 -13 -8 -8 -3 -14 1 -14 8 0 7 6 11 14 8 7 -3 13 -6
13 -8z m-775 -47 c5 4 5 1 1 -6 -6 -10 -11 -10 -22 -1 -8 6 -14 14 -14 16 0 3
6 0 13 -6 8 -6 18 -7 22 -3z m929 -55 c-8 -13 -10 -23 -4 -23 14 0 13 -17 -2
-23 -9 -3 -13 9 -13 43 -1 43 1 46 17 37 16 -10 16 -14 2 -34z m-900 29 c3 -5
-1 -9 -9 -9 -8 0 -12 4 -9 9 3 4 7 8 9 8 2 0 6 -4 9 -8z m-104 -27 c-7 -8 -17
-15 -23 -15 -6 0 -2 7 9 15 25 19 30 19 14 0z m54 3 c-3 -4 -11 -5 -19 -1 -21
7 -19 12 4 10 11 0 18 -5 15 -9z m832 -1 c3 -3 -8 -5 -25 -3 -17 1 -33 5 -36
8 -3 3 8 4 25 3 17 -1 33 -5 36 -8z m-857 -21 c9 -11 9 -16 -1 -22 -7 -4 -10
-4 -6 1 4 4 3 14 -3 22 -6 7 -9 13 -6 13 2 0 10 -6 16 -14z m863 -38 c-6 -6
-12 -5 -17 3 -5 8 -4 10 3 5 8 -5 12 1 13 16 1 18 2 19 6 4 3 -10 0 -23 -5
-28z m-892 18 c-7 -7 -13 -7 -20 0 -6 6 -3 10 10 10 13 0 16 -4 10 -10z m918
-21 c-6 -14 -13 -23 -15 -21 -3 2 0 13 6 24 6 11 7 23 3 27 -4 5 -2 5 5 1 9
-5 10 -13 1 -31z m-897 -12 c13 -16 12 -17 -3 -4 -10 7 -18 15 -18 17 0 8 8 3
21 -13z m873 -52 c-3 -3 -15 6 -27 18 l-22 24 27 -19 c14 -10 24 -21 22 -23z
m149 25 c3 -8 -1 -22 -9 -33 -9 -10 -13 -13 -10 -6 4 6 2 14 -3 18 -11 6 -3
35 9 35 4 0 10 -6 13 -14z m-1068 -15 c-3 -6 -11 -11 -16 -11 -5 0 -4 6 3 14
14 16 24 13 13 -3z m21 -16 c-1 -8 -5 -17 -8 -21 -5 -4 -4 16 1 34 3 9 9 -1 7
-13z m-130 -41 c1 -22 -2 -31 -7 -23 -4 7 -5 17 -3 21 3 4 0 8 -7 8 -8 0 -8 4
1 15 7 8 13 15 14 15 0 0 2 -16 2 -36z m1054 21 c0 -8 -4 -15 -8 -15 -5 0 -9
7 -9 15 0 8 4 15 9 15 4 0 8 -7 8 -15z m-41 -22 c-3 -20 2 -26 11 -13 6 9 10
10 10 3 0 -18 -21 -27 -30 -12 -5 7 -6 17 -4 21 6 10 14 10 13 1z m-931 -23
c-7 -11 -16 -20 -20 -20 -5 0 -3 9 4 20 7 11 16 20 20 20 5 0 3 -9 -4 -20z
m1055 -17 c-4 -9 -2 -14 3 -10 6 3 9 -6 8 -21 -1 -15 -2 -27 -3 -27 -2 0 -4
-11 -7 -23 -2 -13 -14 -32 -27 -43 -21 -17 -21 -20 3 -23 6 0 10 -4 10 -8 0
-5 0 -13 0 -19 0 -5 -5 -7 -11 -4 -14 9 -61 -35 -55 -52 3 -7 1 -15 -5 -18 -5
-4 -7 -10 -4 -15 3 -4 -2 -11 -10 -14 -13 -5 -14 -2 -4 15 7 15 8 19 0 15 -6
-4 -19 -2 -30 3 -14 8 -20 7 -25 -4 -3 -8 -1 -17 4 -20 6 -4 10 -1 10 5 0 23
23 3 26 -22 2 -18 -6 -34 -26 -53 l-27 -26 -20 25 c-11 14 -23 22 -27 18 -4
-3 -4 2 0 13 5 11 9 14 12 7 2 -7 8 -12 13 -12 6 0 8 4 5 9 -3 5 1 11 9 15 8
3 19 -3 24 -12 9 -14 10 -14 11 -2 0 9 -5 21 -12 28 -14 14 -42 16 -33 2 3 -5
1 -10 -4 -10 -18 0 -12 20 7 27 18 7 32 22 32 37 0 5 -8 2 -18 -7 -16 -15 -19
-15 -19 -2 0 8 3 13 5 10 3 -3 11 0 18 6 10 9 15 7 20 -5 6 -15 36 -24 32 -8
-1 4 3 17 10 28 6 12 8 24 5 28 -11 11 -21 6 -19 -10 0 -9 -3 -18 -9 -20 -15
-5 -41 14 -32 23 5 4 12 1 17 -7 5 -8 12 -11 16 -7 4 3 2 12 -3 19 -14 18 -23
59 -12 52 5 -3 9 -14 9 -25 0 -19 1 -19 24 -2 13 10 22 22 19 26 -3 4 -11 3
-19 -4 -28 -23 -13 2 19 32 31 29 31 30 7 24 l-25 -6 24 14 c14 9 19 17 13 21
-6 3 -13 2 -17 -4 -3 -5 -11 -10 -18 -10 -6 0 -2 7 9 16 18 14 18 15 -6 9 -22
-5 -23 -5 -7 5 15 10 23 8 43 -11 13 -13 24 -17 24 -10 0 7 4 10 9 7 5 -3 14
1 21 9 9 11 9 15 1 15 -7 0 -10 4 -6 9 3 5 1 12 -5 16 -6 4 -8 11 -4 16 9 16
34 -10 27 -28z m-943 21 c0 -8 -19 -13 -24 -6 -3 5 1 9 9 9 8 0 15 -2 15 -3z
m-65 -34 c-3 -5 -12 -10 -18 -10 -7 0 -6 4 3 10 19 12 23 12 15 0z m-119 -25
c-2 -35 -11 -39 -12 -4 -1 16 2 29 6 29 4 0 6 -11 6 -25z m164 -7 c0 -4 -4 -8
-9 -8 -6 0 -12 4 -15 8 -3 5 1 9 9 9 8 0 15 -4 15 -9z m835 3 c3 -5 2 -12 -3
-15 -5 -3 -9 1 -9 9 0 17 3 19 12 6z m-895 -21 c0 -5 -4 -10 -10 -10 -5 0 -10
5 -10 10 0 6 5 10 10 10 6 0 10 -4 10 -10z m24 -24 c-10 -8 -21 -12 -24 -10
-5 6 21 24 34 24 6 0 1 -6 -10 -14z m53 -1 c0 -8 -4 -12 -9 -9 -5 3 -6 10 -3
15 9 13 12 11 12 -6z m840 0 c4 -4 2 -5 -4 -1 -8 4 -13 2 -14 -6 0 -10 -2 -10
-6 0 -2 6 -10 9 -15 6 -6 -4 -8 -2 -5 4 8 12 32 10 44 -3z m-873 -13 c3 -5 -1
-9 -9 -9 -8 0 -12 4 -9 9 3 4 7 8 9 8 2 0 6 -4 9 -8z m770 -8 c3 -8 2 -12 -4
-9 -6 3 -10 10 -10 16 0 14 7 11 14 -7z m245 -11 c-10 -11 -14 -11 -20 -1 -14
21 -10 26 11 21 16 -4 18 -8 9 -20z m-1139 -14 c6 -10 2 -14 -14 -15 -14 -1
-22 4 -23 16 -2 21 25 21 37 -1z m95 1 c-3 -5 -12 -10 -18 -10 -7 0 -6 4 3 10
19 12 23 12 15 0z m42 4 c-3 -3 -12 -4 -19 -1 -8 3 -5 6 6 6 11 1 17 -2 13 -5z
m798 -13 c-9 -8 -36 -10 -30 -2 2 4 11 8 20 8 8 0 13 -3 10 -6z m-790 -19 c-3
-3 -11 0 -18 7 -9 10 -8 11 6 5 10 -3 15 -9 12 -12z m49 -8 c3 -8 2 -12 -4 -9
-6 3 -10 10 -10 16 0 14 7 11 14 -7z m-179 -12 c-3 -3 2 -14 12 -24 24 -27 10
-22 -15 5 -17 18 -19 24 -7 24 8 0 13 -3 10 -5z m135 -12 c6 -11 8 -20 6 -20
-3 0 -10 9 -16 20 -6 11 -8 20 -6 20 3 0 10 -9 16 -20z m28 -15 c-3 -3 -9 2
-12 12 -6 14 -5 15 5 6 7 -7 10 -15 7 -18z m56 -16 c3 -3 -5 -5 -19 -5 -13 0
-22 3 -19 7 4 8 30 6 38 -2z m-219 -19 c3 -5 1 -10 -4 -10 -6 0 -11 5 -11 10
0 6 2 10 4 10 3 0 8 -4 11 -10z m876 -17 c-12 -20 -14 -14 -5 12 4 9 9 14 11
11 3 -2 0 -13 -6 -23z m-38 2 c-3 -9 -8 -14 -10 -11 -3 3 -2 9 2 15 9 16 15
13 8 -4z m-665 -20 c-3 -3 -9 2 -12 12 -6 14 -5 15 5 6 7 -7 10 -15 7 -18z
m52 13 c0 -4 -4 -8 -9 -8 -6 0 -12 4 -15 8 -3 5 1 9 9 9 8 0 15 -4 15 -9z
m792 -19 c-15 -15 -29 -23 -31 -17 -2 6 4 15 13 20 9 5 14 13 11 18 -3 5 3 8
14 7 19 -1 18 -3 -7 -28z m-869 -11 c-4 -19 -3 -20 7 -8 9 13 11 12 9 -5 -2
-34 1 -46 11 -40 5 3 7 13 4 23 -5 13 -4 14 4 3 6 -8 12 -10 16 -3 4 6 -2 15
-11 21 -10 6 -13 11 -7 11 5 0 15 -5 22 -12 9 -9 6 -18 -15 -40 -15 -15 -22
-28 -16 -28 6 0 22 13 36 30 20 23 26 26 31 14 3 -8 2 -13 -3 -10 -5 3 -15 -2
-22 -11 -12 -14 -11 -15 9 -9 14 5 22 3 22 -4 0 -6 -4 -8 -10 -5 -5 3 -10 0
-10 -7 0 -8 10 -14 21 -15 12 -1 19 1 15 4 -3 3 -1 12 5 20 9 10 8 13 -1 13
-8 0 -11 2 -8 5 3 3 13 2 22 -1 13 -5 15 -9 5 -15 -16 -10 -21 -42 -6 -36 7 3
11 10 9 16 -3 18 8 13 28 -11 12 -14 17 -31 13 -43 -5 -17 -4 -18 10 -7 22 18
71 -8 92 -48 9 -17 19 -29 23 -26 4 2 13 -2 20 -10 11 -12 9 -13 -8 -11 -12 2
-25 9 -30 17 -6 9 -9 8 -14 -7 -8 -25 -35 -26 -33 -1 1 18 12 24 20 11 2 -5 2
-2 0 5 -1 7 2 10 7 7 6 -3 10 -1 10 4 0 14 -6 14 -30 1 -13 -7 -19 -6 -24 5
-3 8 -2 15 3 15 4 0 8 7 8 15 0 11 -6 14 -16 9 -9 -3 -21 -7 -28 -7 -7 0 -9
-5 -5 -11 14 -23 11 -38 -6 -30 -9 4 -29 7 -44 6 -21 -1 -31 6 -42 26 -14 28
-60 57 -75 48 -12 -8 -66 56 -66 80 -1 18 2 21 16 13 11 -5 20 -5 23 0 9 14
-5 42 -18 35 -6 -3 -2 2 8 10 25 20 25 20 19 -6z m133 -3 c1 -8 -3 -13 -9 -12
-7 1 -11 -4 -9 -11 1 -8 -2 -11 -8 -7 -8 5 -6 13 4 24 9 10 14 21 11 24 -3 4
-2 5 2 2 4 -3 8 -12 9 -20z m454 15 c8 -5 11 -10 5 -10 -5 0 -17 5 -25 10 -8
5 -10 10 -5 10 6 0 17 -5 25 -10z m121 -27 c-11 -16 -11 -15 -5 6 4 17 3 21
-6 16 -9 -6 -11 -4 -5 4 5 9 11 9 17 3 7 -7 6 -16 -1 -29z m-95 2 c-1 -8 -5
-17 -8 -21 -5 -4 -4 16 1 34 3 9 9 -1 7 -13z m-436 -9 c0 -2 -7 -7 -16 -10 -8
-3 -12 -2 -9 4 6 10 25 14 25 6z m60 -6 c0 -5 -5 -10 -11 -10 -5 0 -7 5 -4 10
3 6 8 10 11 10 2 0 4 -4 4 -10z m-63 -25 c0 -8 -4 -12 -9 -9 -5 3 -6 10 -3 15
9 13 12 11 12 -6z m320 0 c0 -8 -4 -12 -9 -9 -5 3 -6 10 -3 15 9 13 12 11 12
-6z m37 7 c3 -5 -1 -9 -9 -9 -8 0 -12 4 -9 9 3 4 7 8 9 8 2 0 6 -4 9 -8z m23
-14 c-3 -8 -6 -5 -6 6 -1 11 2 17 5 13 3 -3 4 -12 1 -19z m44 -22 c5 3 9 0 9
-6 0 -15 -23 -7 -26 8 -1 7 0 8 3 2 2 -5 9 -8 14 -4z m-401 -6 c0 -5 -4 -10
-10 -10 -5 0 -10 5 -10 10 0 6 5 10 10 10 6 0 10 -4 10 -10z m59 -24 c-3 -3
-11 5 -18 17 -13 21 -12 21 5 5 10 -10 16 -20 13 -22z m35 26 c3 -5 -1 -9 -9
-9 -8 0 -12 4 -9 9 3 4 7 8 9 8 2 0 6 -4 9 -8z m263 -14 c-3 -8 -6 -5 -6 6 -1
11 2 17 5 13 3 -3 4 -12 1 -19z m204 5 c13 -16 12 -17 -3 -4 -17 13 -22 21
-14 21 2 0 10 -8 17 -17z m-388 -8 c-3 -9 -8 -14 -10 -11 -3 3 -2 9 2 15 9 16
15 13 8 -4z m-155 -9 c-7 -8 -15 -12 -17 -11 -5 6 10 25 20 25 5 0 4 -6 -3
-14z m205 -3 c-6 -15 -29 -17 -38 -3 -4 6 1 7 11 3 10 -4 15 -2 11 4 -3 5 0
10 7 10 8 0 12 -6 9 -14z m-173 -13 c8 -5 12 -11 9 -14 -3 -3 -14 1 -25 9 -21
16 -8 20 16 5z m93 3 c-7 -2 -19 -2 -25 0 -7 3 -2 5 12 5 14 0 19 -2 13 -5z
m102 -14 c-4 -5 -12 -9 -18 -8 -9 0 -8 2 1 6 6 2 9 10 6 15 -4 7 -2 8 5 4 6
-4 9 -12 6 -17z m22 -1 c-3 -8 -6 -5 -6 6 -1 11 2 17 5 13 3 -3 4 -12 1 -19z
m-240 -77 c11 -17 10 -20 -7 -18 -11 1 -18 8 -17 19 2 23 9 23 24 -1z"/>
<path d="M966 1495 c6 -16 -11 -21 -20 -7 -7 11 -47 9 -66 -3 -8 -5 -21 -10
-28 -11 -19 -3 -28 -14 -12 -14 10 0 10 -3 -1 -17 -12 -14 -12 -16 1 -11 8 3
14 12 14 21 -1 9 4 13 12 10 8 -3 12 -9 9 -13 -3 -5 3 -7 12 -5 10 2 18 4 18
6 0 1 10 3 23 4 12 1 22 -2 22 -7 0 -5 5 -6 11 -2 8 4 7 9 -2 15 -10 6 -10 9
-2 9 7 0 16 -7 21 -16 8 -14 10 -13 23 2 12 16 12 17 -3 11 -10 -3 -20 -1 -24
5 -5 7 -2 8 6 3 9 -6 11 -4 5 4 -6 10 -2 10 16 0 13 -7 29 -12 36 -11 6 1 15
-3 19 -9 5 -8 3 -9 -6 -4 -7 4 -16 2 -21 -6 -7 -11 -9 -11 -9 -1 0 7 -5 10
-10 7 -21 -13 1 -22 50 -20 27 1 50 -2 50 -6 0 -5 6 -8 13 -6 6 1 12 -5 12
-13 0 -8 12 -23 28 -32 15 -10 27 -23 27 -29 0 -8 6 -7 18 3 21 18 40 17 52
-2 6 -9 10 -10 10 -3 0 7 9 10 21 8 17 -4 19 -2 9 10 -14 17 1 20 17 4 8 -8
13 -7 18 3 5 7 5 10 0 6 -4 -4 -20 1 -34 11 -14 10 -32 16 -39 14 -7 -3 -12
-1 -11 4 5 29 -3 35 -16 13 -9 -15 -14 -19 -15 -10 0 12 -2 12 -9 2 -6 -10
-10 -10 -21 3 -7 8 -19 15 -27 15 -8 0 -11 5 -8 10 4 6 11 7 17 4 7 -4 8 -2 4
5 -4 6 -11 9 -16 6 -5 -3 -12 -1 -15 5 -5 8 -14 6 -30 -4 -21 -14 -24 -14 -29
1 -4 9 -9 13 -13 10 -3 -4 -18 2 -33 13 -15 11 -30 17 -33 14 -3 -3 -15 -1
-26 5 -17 10 -20 9 -15 -4z m-73 -22 c-5 -12 -3 -14 7 -8 9 6 11 4 5 -4 -5 -9
-11 -9 -17 -3 -6 6 -7 15 -4 21 11 17 16 13 9 -6z m52 5 c4 -3 2 -9 -3 -12 -5
-3 -15 1 -21 8 -10 11 -9 14 3 12 9 -1 18 -5 21 -8z m200 -38 c-3 -4 2 -13 10
-20 8 -7 15 -9 15 -5 0 5 8 1 18 -7 9 -9 27 -14 40 -12 12 2 22 -1 22 -7 0 -8
5 -8 15 1 8 7 15 11 16 9 6 -33 5 -37 -10 -34 -9 2 -17 4 -18 5 -9 7 -30 5
-42 -4 -12 -9 -13 -8 -6 3 6 11 4 13 -8 8 -12 -4 -14 -2 -10 10 4 10 2 14 -4
10 -6 -4 -24 7 -41 23 -18 17 -26 31 -19 33 15 6 29 -2 22 -13z"/>
<path d="M794 1473 c2 -10 6 -17 10 -16 15 3 16 11 2 22 -12 10 -14 9 -12 -6z"/>
<path d="M706 1443 c-6 -14 -5 -15 5 -6 7 7 10 15 7 18 -3 3 -9 -2 -12 -12z"/>
<path d="M629 1425 c-1 -3 -2 -9 -3 -14 -1 -11 -47 -55 -58 -57 -5 -1 -11 -3
-15 -4 -5 -1 -12 -2 -16 -1 -5 1 -6 -3 -2 -8 8 -13 -23 -73 -34 -66 -5 3 -12
-2 -15 -11 -4 -10 -12 -14 -22 -10 -13 5 -14 3 -7 -6 6 -7 9 -23 8 -35 -1 -19
1 -20 19 -11 20 11 20 11 2 18 -19 6 -19 7 0 15 10 4 25 7 32 6 9 -2 12 4 8
17 -4 12 1 28 12 42 14 18 19 19 19 7 0 -9 -5 -13 -10 -10 -5 3 -8 0 -5 -7 8
-24 26 -22 24 2 -1 15 5 23 16 23 10 0 23 6 30 13 9 9 9 12 -5 12 -9 0 -17 5
-17 12 0 6 3 9 6 5 4 -3 21 5 39 18 17 14 37 25 43 25 6 0 13 4 17 9 3 6 -3 8
-15 6 -11 -2 -22 0 -25 6 -6 10 -24 13 -26 4z m25 -13 c3 -5 -9 -19 -27 -31
l-32 -22 27 25 c18 16 23 26 15 29 -9 4 -9 6 0 6 6 1 14 -3 17 -7z m-80 -83
c-3 -5 -10 -7 -15 -3 -5 3 -7 10 -3 15 3 5 10 7 15 3 5 -3 7 -10 3 -15z"/>
<path d="M405 1160 c-3 -5 -3 -10 1 -10 4 0 -1 -9 -11 -20 -10 -11 -15 -20
-11 -20 4 0 2 -8 -3 -18 -7 -13 -7 -22 1 -30 14 -14 1 -33 -17 -25 -17 6 -19
-5 -5 -27 8 -12 10 -12 10 -1 0 11 3 11 15 1 9 -7 18 -10 22 -6 3 3 1 6 -6 6
-7 0 0 11 16 24 l28 24 -28 13 c-23 11 -40 33 -19 27 14 -5 49 27 49 44 0 14
-3 15 -14 7 -12 -11 -17 -5 -14 14 2 10 -7 9 -14 -3z m19 -41 c-9 -10 -21 -16
-26 -13 -12 8 8 31 27 31 13 0 13 -3 -1 -18z m-10 -73 c-3 -8 -13 -17 -22 -21
-16 -6 -16 -5 0 11 16 16 16 18 0 31 -15 13 -15 13 5 3 13 -6 20 -16 17 -24z"/>
<path d="M1350 1296 c0 -2 7 -7 16 -10 8 -3 12 -2 9 4 -6 10 -25 14 -25 6z"/>
<path d="M1490 833 c0 -5 -7 -10 -15 -11 -8 -1 -22 -3 -30 -4 -8 -1 -12 -4
-10 -8 3 -4 -4 -15 -15 -25 -11 -10 -17 -22 -14 -26 6 -11 24 -12 23 -1 -3 20
2 32 12 26 8 -4 7 -9 -2 -15 -11 -7 -11 -9 1 -9 13 0 13 -1 0 -10 -8 -5 -10
-10 -4 -10 6 0 19 9 29 20 10 11 14 20 9 20 -5 0 -2 5 6 10 10 6 11 10 3 10
-7 0 -13 5 -13 11 0 5 4 8 9 4 11 -6 26 13 17 22 -3 4 -6 2 -6 -4z m-24 -48
c1 -8 -3 -18 -8 -22 -6 -3 -8 -1 -4 5 3 6 2 13 -4 17 -6 4 -8 11 -4 16 7 12
17 4 20 -16z"/>
<path d="M1410 729 c0 -5 -5 -7 -11 -3 -7 4 -10 1 -7 -7 3 -8 10 -14 16 -14 5
0 14 -4 19 -8 4 -5 4 -7 -2 -5 -5 2 -11 -1 -12 -6 -1 -5 -7 -12 -14 -17 -18
-11 -20 -36 -3 -36 9 0 11 4 5 10 -6 6 4 21 26 40 33 29 34 32 17 44 -22 16
-34 17 -34 2z m40 -14 c0 -12 -19 -12 -23 0 -4 9 -1 12 9 8 7 -3 14 -7 14 -8z"/>
<path d="M1313 561 c-20 -31 6 -46 34 -19 13 12 23 26 23 32 0 5 -6 1 -14 -9
-12 -17 -14 -17 -22 -2 -9 15 -11 15 -21 -2z m21 -22 c-3 -5 -10 -7 -15 -3 -5
3 -7 10 -3 15 3 5 10 7 15 3 5 -3 7 -10 3 -15z"/>
<path d="M545 530 c-4 -6 -11 -7 -17 -4 -7 4 -8 2 -4 -4 4 -7 2 -12 -5 -12 -6
0 0 -9 14 -20 14 -11 32 -17 42 -14 10 4 15 2 13 -7 -2 -8 4 -14 12 -14 8 0
27 -16 42 -35 19 -25 35 -35 56 -36 24 -1 30 2 29 17 -1 11 -5 19 -10 19 -5 0
-4 7 3 15 10 12 10 18 0 30 -10 12 -15 13 -20 4 -5 -7 -16 -8 -31 -3 -13 4
-27 7 -31 6 -4 -1 -12 7 -18 19 -9 15 -15 18 -24 9 -8 -5 -21 -7 -31 -4 -13 5
-14 9 -3 15 10 7 11 9 0 9 -7 0 -10 5 -7 10 3 6 4 10 1 10 -3 0 -8 -5 -11 -10z
m0 -19 c-3 -6 3 -14 12 -20 10 -6 13 -11 7 -11 -15 0 -36 25 -27 33 10 10 15
8 8 -2z m62 -31 c1 -11 -2 -20 -7 -20 -6 0 -7 17 -1 38 3 8 7 -1 8 -18z m52
-29 c11 -18 16 -18 34 -3 9 8 18 9 21 3 4 -5 2 -12 -4 -16 -6 -4 -7 -13 -1
-24 8 -14 5 -17 -14 -16 -16 0 -33 12 -50 34 -14 19 -25 36 -25 37 0 8 33 -5
39 -15z"/>
<path d="M640 454 c0 -18 47 -57 55 -45 3 6 3 11 -1 11 -3 0 0 8 7 18 12 15
12 16 -1 6 -20 -14 -39 -12 -50 6 -5 8 -10 10 -10 4z"/>
<path d="M745 420 c-3 -6 1 -7 9 -4 18 7 21 14 7 14 -6 0 -13 -4 -16 -10z"/>
<path d="M799 402 c9 -7 10 -11 2 -15 -7 -4 -8 -5 0 -4 15 3 13 21 -3 25 -10
3 -10 2 1 -6z"/>
<path d="M870 1560 c0 -5 5 -10 10 -10 6 0 10 5 10 10 0 6 -4 10 -10 10 -5 0
-10 -4 -10 -10z"/>
<path d="M985 1557 c-15 -12 -16 -15 -4 -22 8 -5 10 -4 6 0 -4 5 3 15 15 22
13 7 18 12 12 13 -5 0 -18 -6 -29 -13z"/>
<path d="M615 1550 c-3 -5 -1 -10 4 -10 6 0 11 5 11 10 0 6 -2 10 -4 10 -3 0
-8 -4 -11 -10z"/>
<path d="M1247 1549 c7 -7 15 -10 18 -7 3 3 -2 9 -12 12 -14 6 -15 5 -6 -5z"/>
<path d="M716 1535 c10 -8 23 -15 28 -15 6 0 1 7 -10 15 -10 8 -23 15 -28 15
-6 0 -1 -7 10 -15z"/>
<path d="M752 1536 c7 -8 15 -12 17 -11 5 6 -10 25 -20 25 -5 0 -4 -6 3 -14z"/>
<path d="M1132 1534 c-7 -8 -8 -14 -3 -14 10 0 25 19 20 25 -2 1 -10 -3 -17
-11z"/>
<path d="M1173 1525 c-1 -11 1 -14 4 -7 3 6 8 10 13 7 4 -3 10 1 13 8 3 7 -3
13 -12 13 -10 0 -17 -9 -18 -21z"/>
<path d="M687 1529 c7 -7 15 -10 18 -7 3 3 -2 9 -12 12 -14 6 -15 5 -6 -5z"/>
<path d="M638 1513 c7 -3 16 -2 19 1 4 3 -2 6 -13 5 -11 0 -14 -3 -6 -6z"/>
<path d="M516 1497 c3 -10 9 -15 12 -12 3 3 0 11 -7 18 -10 9 -11 8 -5 -6z"/>
<path d="M1270 1471 c0 -6 4 -12 8 -15 5 -3 9 1 9 9 0 8 -4 15 -9 15 -4 0 -8
-4 -8 -9z"/>
<path d="M530 1455 c-7 -9 -11 -17 -9 -20 3 -2 10 5 17 15 14 24 10 26 -8 5z"/>
<path d="M1320 1440 c-6 -11 -9 -20 -8 -20 2 0 11 9 21 20 9 11 13 20 7 20 -5
0 -14 -9 -20 -20z"/>
<path d="M479 1438 c-5 -18 -6 -38 -1 -34 7 8 12 36 6 36 -2 0 -4 -1 -5 -2z"/>
<path d="M1364 1426 c-3 -8 -12 -12 -20 -9 -8 3 -14 3 -14 0 0 -16 31 -13 40
3 6 11 8 20 5 20 -3 0 -8 -6 -11 -14z"/>
<path d="M1395 1400 c0 -16 3 -31 6 -34 3 -3 5 7 5 23 -1 16 -3 32 -6 35 -3 3
-5 -8 -5 -24z"/>
<path d="M1429 1393 c-13 -16 -12 -17 4 -4 16 13 21 21 13 21 -2 0 -10 -8 -17
-17z"/>
<path d="M1430 1350 c0 -4 10 -15 22 -26 17 -14 20 -15 9 -2 -7 9 -10 21 -7
26 3 5 -1 9 -9 9 -8 0 -15 -3 -15 -7z"/>
<path d="M365 1330 c10 -11 20 -20 23 -20 3 0 -3 9 -13 20 -10 11 -20 20 -23
20 -3 0 3 -9 13 -20z"/>
<path d="M1495 1341 c-3 -5 -2 -12 3 -15 5 -3 9 1 9 9 0 17 -3 19 -12 6z"/>
<path d="M335 1310 c-3 -5 -1 -10 4 -10 6 0 11 5 11 10 0 6 -2 10 -4 10 -3 0
-8 -4 -11 -10z"/>
<path d="M1496 1297 c3 -10 9 -15 12 -12 3 3 0 11 -7 18 -10 9 -11 8 -5 -6z"/>
<path d="M1315 1285 c4 -11 7 -24 8 -29 4 -18 50 -66 70 -72 14 -4 16 -8 7
-14 -9 -5 -8 -9 3 -13 19 -7 16 21 -4 34 -12 7 -12 9 1 9 12 1 11 3 -3 11 -9
6 -15 14 -12 18 6 10 -14 28 -35 33 -8 2 -21 12 -28 23 l-13 20 6 -20z m75
-81 c0 -2 -9 0 -20 6 -11 6 -20 13 -20 16 0 2 9 0 20 -6 11 -6 20 -13 20 -16z"/>
<path d="M353 1245 c0 -8 4 -15 9 -15 4 0 8 4 8 9 0 6 -4 12 -8 15 -5 3 -9 -1
-9 -9z"/>
<path d="M1519 1243 c-13 -16 -12 -17 4 -4 16 13 21 21 13 21 -2 0 -10 -8 -17
-17z"/>
<path d="M325 1210 c-3 -6 1 -7 9 -4 18 7 21 14 7 14 -6 0 -13 -4 -16 -10z"/>
<path d="M1510 1213 c0 -5 5 -15 10 -23 7 -12 9 -10 7 8 -1 19 -17 33 -17 15z"/>
<path d="M1505 1149 c-4 -6 -5 -12 -2 -15 2 -3 7 2 10 11 7 17 1 20 -8 4z"/>
<path d="M298 1138 c6 -6 18 -8 28 -6 14 3 12 5 -9 10 -19 3 -25 2 -19 -4z"/>
<path d="M1526 1135 c-3 -8 -1 -15 5 -15 6 0 7 -5 3 -12 -4 -6 -3 -8 4 -5 5 4
8 16 5 27 -6 24 -9 25 -17 5z"/>
<path d="M255 1130 c-4 -6 -1 -9 7 -8 7 2 12 -3 10 -10 -1 -8 2 -11 8 -7 8 5
7 11 -1 21 -14 17 -16 17 -24 4z"/>
<path d="M1409 1125 c-4 -36 25 -75 43 -57 6 6 6 12 -1 16 -5 4 -8 13 -4 21 3
9 -1 15 -8 15 -11 0 -11 2 1 10 12 7 10 9 -8 7 -12 0 -23 -6 -23 -12z m28 -22
c-4 -3 -1 -13 6 -22 11 -14 10 -14 -5 -2 -16 12 -16 31 -1 31 4 0 3 -3 0 -7z"/>
<path d="M316 1108 c3 -4 9 -8 15 -8 5 0 9 4 9 8 0 5 -7 9 -15 9 -8 0 -12 -4
-9 -9z"/>
<path d="M290 1090 c0 -5 5 -10 10 -10 6 0 10 5 10 10 0 6 -4 10 -10 10 -5 0
-10 -4 -10 -10z"/>
<path d="M1606 1068 c3 -5 10 -6 15 -3 13 9 11 12 -6 12 -8 0 -12 -4 -9 -9z"/>
<path d="M215 1041 c-3 -5 -2 -12 3 -15 5 -3 9 1 9 9 0 17 -3 19 -12 6z"/>
<path d="M293 1038 c0 -7 -4 -22 -7 -33 -6 -16 -4 -15 6 3 8 12 18 19 23 15 5
-4 3 0 -4 10 -16 20 -18 21 -18 5z"/>
<path d="M1561 1022 c-6 -12 -6 -23 0 -33 9 -12 10 -12 6 1 -2 8 0 23 5 33 5
9 6 17 4 17 -3 0 -10 -8 -15 -18z"/>
<path d="M1585 1009 c-3 -4 2 -6 10 -5 21 3 28 13 10 13 -9 0 -18 -4 -20 -8z"/>
<path d="M250 968 c0 -4 4 -8 9 -8 6 0 12 4 15 8 3 5 -1 9 -9 9 -8 0 -15 -4
-15 -9z"/>
<path d="M290 970 c0 -5 5 -10 10 -10 6 0 10 5 10 10 0 6 -4 10 -10 10 -5 0
-10 -4 -10 -10z"/>
<path d="M385 961 c3 -5 1 -12 -5 -16 -6 -3 -8 -18 -6 -32 8 -39 15 -40 13 -2
-1 23 2 33 11 32 17 -4 15 14 -4 21 -8 3 -12 2 -9 -3z"/>
<path d="M1576 912 c-3 -5 1 -9 9 -9 8 0 12 4 9 9 -3 4 -7 8 -9 8 -2 0 -6 -4
-9 -8z"/>
<path d="M1596 884 c-22 -22 -20 -31 2 -11 10 10 22 14 27 10 4 -5 5 -2 1 5
-9 15 -11 15 -30 -4z"/>
<path d="M216 868 c3 -5 10 -6 15 -3 13 9 11 12 -6 12 -8 0 -12 -4 -9 -9z"/>
<path d="M1541 858 c-16 -26 -11 -30 11 -7 10 10 14 20 10 23 -5 3 -14 -4 -21
-16z"/>
<path d="M385 835 c0 -18 3 -37 7 -40 4 -4 4 -13 2 -20 -6 -14 22 -28 37 -19
14 8 11 30 -5 44 -8 6 -13 17 -10 24 3 7 -4 20 -14 29 -18 16 -18 15 -17 -18z
m20 6 c3 -5 2 -12 -3 -15 -5 -3 -9 1 -9 9 0 17 3 19 12 6z m15 -52 c0 -5 0
-11 0 -14 0 -8 -15 -6 -15 3 0 4 -4 13 -8 19 -6 9 -3 11 7 7 9 -3 16 -10 16
-15z"/>
<path d="M215 830 c3 -5 8 -10 11 -10 2 0 4 5 4 10 0 6 -5 10 -11 10 -5 0 -7
-4 -4 -10z"/>
<path d="M1635 821 c-3 -5 -2 -12 3 -15 5 -3 9 1 9 9 0 17 -3 19 -12 6z"/>
<path d="M277 809 c7 -7 15 -10 18 -7 3 3 -2 9 -12 12 -14 6 -15 5 -6 -5z"/>
<path d="M237 780 c12 -16 63 -25 63 -12 0 5 -10 8 -22 7 -13 -1 -30 3 -38 9
-13 9 -13 8 -3 -4z"/>
<path d="M1614 746 c1 -8 5 -18 8 -22 4 -3 5 1 4 10 -1 8 -5 18 -8 22 -4 3 -5
-1 -4 -10z"/>
<path d="M256 728 c3 -5 10 -6 15 -3 13 9 11 12 -6 12 -8 0 -12 -4 -9 -9z"/>
<path d="M1558 728 c-9 -5 -6 -7 9 -5 12 2 25 6 28 8 8 9 -23 6 -37 -3z"/>
<path d="M428 695 c4 -5 7 -12 8 -15 0 -3 4 -13 9 -23 6 -13 10 -15 21 -6 17
14 7 32 -13 24 -14 -5 -14 -3 -2 11 8 10 15 12 17 5 5 -15 19 -14 25 3 4 10
-4 13 -33 12 -23 0 -36 -5 -32 -11z"/>
<path d="M1512 694 c-7 -8 -8 -14 -3 -14 10 0 25 19 20 25 -2 1 -10 -3 -17
-11z"/>
<path d="M286 692 c-3 -5 1 -9 9 -9 8 0 12 4 9 9 -3 4 -7 8 -9 8 -2 0 -6 -4
-9 -8z"/>
<path d="M335 689 c-11 -16 -1 -19 13 -3 7 8 8 14 3 14 -5 0 -13 -5 -16 -11z"/>
<path d="M1520 670 c-9 -6 -10 -10 -3 -10 6 0 15 5 18 10 8 12 4 12 -15 0z"/>
<path d="M1553 665 c0 -8 4 -12 9 -9 5 3 6 10 3 15 -9 13 -12 11 -12 -6z"/>
<path d="M1490 661 c0 -6 4 -13 10 -16 6 -3 7 1 4 9 -7 18 -14 21 -14 7z"/>
<path d="M337 649 c7 -7 15 -10 18 -7 3 3 -2 9 -12 12 -14 6 -15 5 -6 -5z"/>
<path d="M487 633 c-8 -12 5 -29 21 -27 6 1 17 2 22 3 6 0 10 6 10 12 0 8 -4
8 -14 0 -11 -10 -16 -9 -24 5 -5 9 -12 12 -15 7z"/>
<path d="M1550 629 c0 -5 5 -7 10 -4 6 3 10 8 10 11 0 2 -4 4 -10 4 -5 0 -10
-5 -10 -11z"/>
<path d="M236 617 c3 -10 9 -15 12 -12 3 3 0 11 -7 18 -10 9 -11 8 -5 -6z"/>
<path d="M1500 621 c0 -6 4 -13 10 -16 6 -3 7 1 4 9 -7 18 -14 21 -14 7z"/>
<path d="M310 612 c0 -5 7 -9 15 -9 8 0 12 4 9 9 -3 4 -9 8 -15 8 -5 0 -9 -4
-9 -8z"/>
<path d="M345 590 c-3 -6 1 -7 9 -4 18 7 21 14 7 14 -6 0 -13 -4 -16 -10z"/>
<path d="M410 559 c7 -11 14 -19 16 -16 7 7 -7 37 -17 37 -6 0 -5 -9 1 -21z"/>
<path d="M336 503 c-6 -14 -5 -15 5 -6 7 7 10 15 7 18 -3 3 -9 -2 -12 -12z"/>
<path d="M1467 509 c7 -7 15 -10 18 -7 3 3 -2 9 -12 12 -14 6 -15 5 -6 -5z"/>
<path d="M1424 499 c1 -7 10 -13 19 -15 9 -1 15 2 11 7 -3 5 -9 7 -14 4 -4 -3
-11 0 -13 5 -3 6 -4 5 -3 -1z"/>
<path d="M439 483 c-13 -16 -12 -17 4 -4 9 7 17 15 17 17 0 8 -8 3 -21 -13z"/>
<path d="M1180 460 c-18 -21 -36 -39 -39 -38 -24 2 -32 -4 -27 -19 4 -11 -1
-8 -13 7 -18 23 -21 23 -38 8 -10 -9 -30 -15 -44 -14 -16 2 -26 -2 -26 -11 0
-7 3 -13 6 -14 45 -6 85 -34 74 -52 -3 -5 -1 -7 5 -3 5 3 12 1 14 -6 2 -6 12
-12 21 -14 10 -1 14 2 10 9 -4 7 0 8 13 4 19 -7 19 -7 0 8 -11 8 -16 18 -13
22 4 3 7 3 7 0 0 -4 9 2 20 13 11 11 26 20 33 20 6 -1 1 -10 -12 -21 -13 -11
-22 -22 -19 -24 2 -3 13 3 24 13 11 10 28 24 39 31 15 10 16 11 3 7 -22 -7
-50 3 -43 15 3 4 11 6 18 3 8 -3 21 10 30 28 16 30 16 21 1 -16 -6 -16 43 -20
52 -4 4 6 10 5 16 -3 8 -11 9 -11 5 1 -4 15 -7 15 -36 8 -7 -1 -15 2 -17 7 -2
6 8 12 23 13 32 3 40 9 26 23 -15 15 -46 18 -60 7 -7 -5 -17 -7 -24 -3 -8 6
-8 10 2 16 7 4 11 10 8 13 -3 3 -20 -12 -39 -34z m109 -6 c3 -4 -2 -4 -11 -1
-9 3 -18 1 -21 -6 -2 -6 -6 -4 -10 5 -4 13 -1 16 15 13 11 -3 23 -7 27 -11z
m-76 0 c9 -9 -12 -46 -22 -39 -5 2 -14 -2 -21 -10 -7 -8 -9 -15 -4 -15 5 0 -6
-10 -24 -22 -19 -12 -31 -26 -28 -34 3 -7 1 -16 -4 -19 -6 -4 -11 0 -12 7 0 7
-2 18 -3 23 -2 6 -3 16 -4 23 0 7 -6 10 -12 6 -8 -4 -7 -9 2 -15 8 -5 10 -9 6
-9 -5 0 -20 9 -34 20 -14 11 -30 17 -36 13 -6 -3 -7 -1 -3 5 4 6 13 9 20 6 8
-3 17 0 21 5 3 6 11 9 16 6 5 -4 9 -1 9 6 0 7 6 4 14 -6 8 -11 12 -23 10 -27
-2 -4 0 -10 6 -13 6 -4 10 -3 9 2 -1 4 0 11 1 16 1 4 3 13 4 20 1 6 7 11 13
10 6 -1 21 9 33 22 24 26 32 29 43 19z"/>
<path d="M1170 425 c-12 -13 -26 -23 -29 -20 -4 2 -7 -5 -7 -16 0 -19 1 -19
17 2 9 12 27 30 40 40 13 10 19 19 13 19 -6 0 -21 -11 -34 -25z"/>
<path d="M1055 390 c-3 -5 -1 -11 4 -14 5 -4 12 -2 16 4 4 6 12 7 18 4 7 -4 8
-3 4 1 -11 12 -36 15 -42 5z"/>
<path d="M376 468 c3 -5 10 -6 15 -3 13 9 11 12 -6 12 -8 0 -12 -4 -9 -9z"/>
<path d="M455 471 c-6 -11 13 -26 22 -17 4 3 1 6 -6 6 -7 0 -9 5 -6 10 3 6 4
10 1 10 -3 0 -7 -4 -11 -9z"/>
<path d="M1395 470 c-16 -7 -17 -9 -3 -9 9 -1 20 4 23 9 7 11 7 11 -20 0z"/>
<path d="M1435 461 c-3 -5 -2 -12 3 -15 5 -3 9 1 9 9 0 17 -3 19 -12 6z"/>
<path d="M466 432 c-3 -5 1 -9 9 -9 8 0 15 4 15 9 0 4 -4 8 -9 8 -6 0 -12 -4
-15 -8z"/>
<path d="M1333 424 c-3 -8 -1 -20 5 -26 8 -8 9 -4 5 12 -5 17 -3 21 7 15 9 -5
11 -4 6 3 -10 16 -15 15 -23 -4z"/>
<path d="M1410 429 c0 -5 5 -7 10 -4 6 3 10 8 10 11 0 2 -4 4 -10 4 -5 0 -10
-5 -10 -11z"/>
<path d="M531 414 c0 -11 3 -14 6 -6 3 7 2 16 -1 19 -3 4 -6 -2 -5 -13z"/>
<path d="M495 411 c-3 -5 -2 -12 3 -15 5 -3 9 1 9 9 0 17 -3 19 -12 6z"/>
<path d="M860 395 c-7 -8 -9 -16 -4 -16 39 -6 51 -4 64 9 13 14 12 15 -3 9 -9
-3 -19 -2 -22 3 -9 14 -21 12 -35 -5z"/>
<path d="M1306 393 c-6 -14 -5 -15 5 -6 7 7 10 15 7 18 -3 3 -9 -2 -12 -12z"/>
<path d="M1273 375 c0 -8 4 -15 9 -15 4 0 8 4 8 9 0 6 -4 12 -8 15 -5 3 -9 -1
-9 -9z"/>
<path d="M636 345 c-9 -26 -7 -32 5 -12 6 10 9 21 6 23 -2 3 -7 -2 -11 -11z"/>
<path d="M1022 339 c-10 -16 -11 -24 -2 -33 9 -8 11 -6 8 8 -1 10 3 21 11 24
8 3 11 0 7 -7 -4 -6 -2 -11 3 -11 13 0 13 3 5 24 -8 21 -17 20 -32 -5z"/>
<path d="M1236 345 c-11 -8 -15 -15 -9 -15 6 0 16 7 23 15 16 19 11 19 -14 0z"/>
<path d="M655 329 c-4 -6 -4 -13 -1 -16 3 -4 6 -1 6 6 0 7 5 9 10 6 6 -3 10
-1 10 4 0 14 -17 14 -25 0z"/>
<path d="M1257 325 c-4 -8 -3 -16 1 -19 4 -3 9 4 9 15 2 23 -3 25 -10 4z"/>
<path d="M1295 330 c3 -5 8 -10 11 -10 2 0 4 5 4 10 0 6 -5 10 -11 10 -5 0 -7
-4 -4 -10z"/>
<path d="M575 310 c3 -5 8 -10 11 -10 2 0 4 5 4 10 0 6 -5 10 -11 10 -5 0 -7
-4 -4 -10z"/>
<path d="M717 303 c-4 -3 -7 -11 -7 -16 0 -6 3 -7 7 -4 3 4 13 1 22 -6 14 -11
15 -10 1 8 -8 11 -15 21 -16 23 0 1 -4 -1 -7 -5z"/>
<path d="M750 301 c0 -6 4 -12 8 -15 5 -3 9 1 9 9 0 8 -4 15 -9 15 -4 0 -8 -4
-8 -9z"/>
<path d="M861 294 c0 -11 3 -14 6 -6 3 7 2 16 -1 19 -3 4 -6 -2 -5 -13z"/>
<path d="M1057 291 c-4 -17 -3 -21 5 -13 5 5 8 16 6 23 -3 8 -7 3 -11 -10z"/>
<path d="M1170 301 c0 -7 -5 -9 -12 -5 -7 5 -8 3 -3 -5 5 -9 10 -10 18 -2 6 6
8 14 4 18 -4 3 -7 1 -7 -6z"/>
<path d="M656 291 c-3 -4 4 -7 14 -6 27 2 33 10 10 12 -11 1 -22 -2 -24 -6z"/>
<path d="M986 292 c-2 -4 4 -8 14 -8 10 0 16 4 14 8 -3 4 -9 8 -14 8 -5 0 -11
-4 -14 -8z"/>
<path d="M1087 289 c7 -7 15 -10 18 -7 3 3 -2 9 -12 12 -14 6 -15 5 -6 -5z"/>
<path d="M910 280 c8 -5 20 -10 25 -10 6 0 3 5 -5 10 -8 5 -19 10 -25 10 -5 0
-3 -5 5 -10z"/>
<path d="M1026 273 c-6 -14 -5 -15 5 -6 7 7 10 15 7 18 -3 3 -9 -2 -12 -12z"/>
<path d="M830 265 c5 -7 8 -14 5 -17 -3 -2 2 -5 10 -5 8 0 16 6 19 13 3 9 -1
11 -11 7 -10 -4 -14 -2 -10 4 3 5 0 10 -8 10 -10 0 -12 -4 -5 -12z"/>
<path d="M950 276 c0 -2 7 -7 16 -10 8 -3 12 -2 9 4 -6 10 -25 14 -25 6z"/>
<path d="M989 253 c-13 -16 -12 -17 4 -4 16 13 21 21 13 21 -2 0 -10 -8 -17
-17z"/>
<path d="M1196 257 c3 -10 9 -15 12 -12 3 3 0 11 -7 18 -10 9 -11 8 -5 -6z"/>
<path d="M1095 231 c-3 -5 -2 -12 3 -15 5 -3 9 1 9 9 0 17 -3 19 -12 6z"/>
<path d="M770 211 c0 -6 4 -13 10 -16 6 -3 7 1 4 9 -7 18 -14 21 -14 7z"/>
<path d="M875 211 c-3 -5 -2 -12 3 -15 5 -3 9 1 9 9 0 17 -3 19 -12 6z"/>
</g>
</svg>
